<?xml version="1.0" standalone="no"?>
<!DOCTYPE svg PUBLIC "-//W3C//DTD SVG 1.1//EN" "http://www.w3.org/Graphics/SVG/1.1/DTD/svg11.dtd">
<!--Generator: Xara Designer (www.xara.com), SVG filter version: 6.6.0.9-->
<svg fill="none" fill-rule="evenodd" stroke="black" stroke-width="0.501" stroke-linejoin="bevel" stroke-miterlimit="10" font-family="Times New Roman" font-size="16" style="font-variant-ligatures:none" xmlns:xlink="http://www.w3.org/1999/xlink" xmlns="http://www.w3.org/2000/svg" version="1.1" overflow="visible" width="151.396pt" height="41.9pt" viewBox="634.563 -801.061 151.396 41.9">
 <defs>
  <style type="text/css">@import url('https://themes.googleusercontent.com/fonts/css?family=Open Sans:400,600');</style>
 </defs>
 <g id="Layer 1" transform="scale(1 -1)">
  <g id="Group" stroke="none">
   <g id="Group_1" stroke-linejoin="miter">
    <rect x="-5.514" y="-1.609" width="11.029" height="3.218" rx="1.55937037659023" ry="1.55937037659023" transform="translate(641.918 775.784) rotate(-145.004)" stroke-width="0.078" fill="#ff8200"/>
    <rect x="-5.516" y="-1.609" width="11.032" height="3.218" rx="1.55946373022909" ry="1.55946373022909" transform="translate(640.028 785.294) rotate(170.02)" stroke-width="0.078" fill="#ff5612"/>
    <rect x="-5.514" y="-1.609" width="11.029" height="3.218" rx="1.55937037659023" ry="1.55937037659023" transform="translate(644.862 794.044) rotate(124.996)" stroke-width="0.078" fill="#34cc5c"/>
    <rect x="-5.514" y="-1.609" width="11.029" height="3.218" rx="1.55937037659023" ry="1.55937037659023" transform="translate(663.028 790.568) rotate(34.9962)" stroke-width="0.078" fill="#7f0041"/>
    <rect x="-5.516" y="-1.609" width="11.032" height="3.218" rx="1.55946373022909" ry="1.55946373022909" transform="translate(654.737 795.596) rotate(80.0197)" stroke-width="0.078" fill="#7f007e"/>
    <path d="M 665.608,760.278 L 661.224,766.539 C 659.345,764.996 657.628,763.22 656.086,761.176 C 655.347,760.658 654.623,761.012 654.477,761.96 L 649.964,785.424 C 649.818,786.369 650.376,786.768 651.221,786.301 L 671.729,774.036 C 672.565,773.572 672.651,772.777 671.91,772.26 C 669.501,771.483 667.234,770.484 665.125,769.246 L 669.501,763.002 C 670.292,761.869 670.089,760.351 669.039,759.619 L 668.945,759.551 C 667.896,758.823 666.396,759.143 665.608,760.278 Z" stroke-width="0.102" fill="#000165" marker-start="none" marker-end="none"/>
   </g>
   <path d="M 689.185,767.095 C 690.505,767.095 691.716,767.293 692.82,767.694 C 693.925,768.096 694.932,768.715 695.842,769.549 C 696.12,769.819 696.284,770.103 696.331,770.411 C 696.378,770.715 696.35,771.007 696.248,771.285 C 696.146,771.561 696.009,771.788 695.842,771.97 C 695.669,772.171 695.414,772.311 695.076,772.387 C 694.738,772.463 694.386,772.463 694.018,772.384 C 693.646,772.301 693.326,772.129 693.052,771.859 C 692.737,771.621 692.367,771.428 691.935,771.278 C 691.503,771.127 691.052,771.022 690.576,770.962 C 690.102,770.903 689.636,770.892 689.185,770.929 C 688.745,770.968 688.302,771.061 687.854,771.212 C 687.406,771.366 686.99,771.559 686.597,771.796 C 686.208,772.035 685.883,772.301 685.615,772.603 C 685.284,772.929 685.011,773.309 684.802,773.749 C 684.594,774.186 684.443,774.619 684.35,775.056 L 696.177,775.056 C 696.708,775.062 697.144,775.202 697.49,775.468 C 697.842,775.733 698.047,776.093 698.109,776.543 C 698.126,776.587 698.141,776.64 698.143,776.712 C 698.146,776.783 698.149,776.838 698.146,776.879 C 698.146,776.879 698.146,776.879 698.146,776.879 C 698.146,776.879 698.146,776.879 698.146,776.879 C 698.146,776.916 698.146,776.952 698.146,776.983 C 698.146,777.02 698.146,777.043 698.146,777.066 C 698.066,778.325 697.785,779.481 697.303,780.53 C 696.818,781.577 696.177,782.489 695.368,783.26 C 694.563,784.03 693.634,784.626 692.584,785.046 C 691.534,785.47 690.402,785.684 689.185,785.689 C 687.906,785.681 686.716,785.434 685.621,784.949 C 684.529,784.46 683.573,783.793 682.753,782.939 C 681.932,782.085 681.289,781.098 680.828,779.981 C 680.367,778.863 680.128,777.668 680.113,776.397 C 680.128,775.122 680.367,773.928 680.828,772.816 C 681.289,771.697 681.932,770.715 682.753,769.864 C 683.573,769.01 684.529,768.34 685.621,767.853 C 686.716,767.367 687.906,767.111 689.185,767.095 Z M 689.185,782.16 C 689.996,782.085 690.72,781.916 691.358,781.64 C 691.997,781.367 692.547,781.035 693.013,780.65 C 693.472,780.255 693.844,779.85 694.128,779.421 C 694.409,778.999 694.596,778.595 694.688,778.218 L 684.165,778.218 C 684.237,778.606 684.393,779.015 684.631,779.455 C 684.867,779.89 685.193,780.306 685.602,780.704 C 686.013,781.098 686.516,781.428 687.108,781.692 C 687.704,781.96 688.396,782.114 689.185,782.16 Z" stroke-linecap="round" stroke-linejoin="round" fill-rule="nonzero" stroke-width="0.131" fill="#000165" marker-start="none" marker-end="none"/>
   <path d="M 718.268,776.353 C 718.268,776.353 718.268,776.353 718.268,776.353 C 718.268,776.374 718.268,776.382 718.268,776.387 C 718.268,776.39 718.268,776.393 718.268,776.393 L 718.268,791.117 C 718.261,791.483 718.173,791.816 717.998,792.116 C 717.82,792.419 717.578,792.661 717.277,792.843 C 716.977,793.025 716.638,793.117 716.264,793.127 C 715.875,793.117 715.526,793.025 715.222,792.843 C 714.914,792.661 714.672,792.419 714.493,792.116 C 714.315,791.816 714.224,791.483 714.222,791.117 L 714.222,784.129 C 713.526,784.616 712.748,784.999 711.894,785.272 C 711.04,785.544 710.154,785.684 709.235,785.689 C 707.972,785.681 706.795,785.434 705.706,784.949 C 704.613,784.46 703.656,783.791 702.836,782.934 C 702.011,782.08 701.37,781.09 700.907,779.963 C 700.445,778.843 700.209,777.637 700.201,776.353 C 700.209,775.092 700.445,773.9 700.907,772.79 C 701.37,771.674 702.011,770.692 702.836,769.842 C 703.656,768.988 704.613,768.32 705.706,767.835 C 706.795,767.35 707.972,767.106 709.235,767.095 C 710.172,767.103 711.071,767.249 711.932,767.531 C 712.794,767.816 713.583,768.202 714.294,768.692 C 714.394,768.236 714.621,767.861 714.974,767.561 C 715.323,767.259 715.753,767.106 716.264,767.095 C 716.638,767.1 716.977,767.194 717.277,767.376 C 717.578,767.557 717.82,767.801 717.998,768.103 C 718.173,768.403 718.261,768.738 718.268,769.103 L 718.268,776.353 Z M 712.732,780.116 C 713.199,779.645 713.565,779.087 713.826,778.445 C 714.084,777.801 714.219,777.106 714.222,776.353 C 714.219,775.642 714.084,774.967 713.826,774.33 C 713.565,773.697 713.199,773.142 712.732,772.671 C 712.266,772.182 711.738,771.807 711.151,771.544 C 710.563,771.28 709.922,771.147 709.235,771.143 C 708.563,771.147 707.927,771.28 707.331,771.544 C 706.738,771.807 706.204,772.182 705.737,772.671 C 705.268,773.142 704.906,773.697 704.644,774.33 C 704.386,774.967 704.255,775.642 704.25,776.353 C 704.255,777.106 704.386,777.801 704.644,778.445 C 704.906,779.087 705.268,779.645 705.737,780.116 C 706.204,780.601 706.738,780.976 707.331,781.241 C 707.927,781.504 708.563,781.637 709.235,781.64 C 709.922,781.637 710.563,781.504 711.151,781.241 C 711.738,780.976 712.266,780.601 712.732,780.116 Z" stroke-linecap="round" stroke-linejoin="round" fill-rule="nonzero" stroke-width="0.131" fill="#000165" marker-start="none" marker-end="none"/>
   <path d="M 736.474,774.827 L 736.474,783.718 C 736.467,784.072 736.373,784.395 736.186,784.691 C 736,784.989 735.755,785.229 735.451,785.408 C 735.147,785.59 734.821,785.684 734.466,785.689 C 734.092,785.684 733.761,785.59 733.474,785.408 C 733.182,785.229 732.958,784.989 732.789,784.691 C 732.623,784.395 732.537,784.072 732.537,783.718 L 732.537,783.718 L 732.537,774.827 C 732.518,774.114 732.334,773.473 731.987,772.903 C 731.641,772.332 731.175,771.882 730.594,771.546 C 730.009,771.212 729.357,771.044 728.63,771.036 C 727.915,771.044 727.274,771.212 726.703,771.546 C 726.133,771.882 725.682,772.332 725.347,772.903 C 725.013,773.473 724.844,774.114 724.836,774.827 L 724.836,783.718 C 724.831,784.072 724.742,784.395 724.573,784.691 C 724.399,784.989 724.167,785.229 723.871,785.408 C 723.576,785.59 723.242,785.684 722.867,785.689 C 722.503,785.684 722.172,785.59 721.876,785.408 C 721.578,785.229 721.344,784.989 721.167,784.691 C 720.992,784.395 720.901,784.072 720.897,783.718 L 720.897,774.827 C 720.904,773.76 721.107,772.762 721.508,771.83 C 721.907,770.9 722.464,770.08 723.173,769.374 C 723.883,768.661 724.701,768.108 725.633,767.707 C 726.561,767.304 727.563,767.103 728.63,767.095 C 729.709,767.103 730.716,767.304 731.66,767.707 C 732.602,768.108 733.436,768.661 734.157,769.374 C 734.878,770.08 735.44,770.9 735.849,771.83 C 736.261,772.762 736.467,773.76 736.474,774.827 Z" stroke-linecap="round" stroke-linejoin="round" fill-rule="nonzero" stroke-width="0.131" fill="#000165" marker-start="none" marker-end="none"/>
   <path d="M 739.143,791.077 L 739.143,769.14 C 739.143,768.767 739.24,768.423 739.422,768.116 C 739.608,767.809 739.852,767.561 740.162,767.379 C 740.469,767.194 740.808,767.1 741.186,767.095 C 741.576,767.1 741.927,767.194 742.24,767.379 C 742.553,767.561 742.8,767.809 742.985,768.116 C 743.169,768.423 743.266,768.767 743.269,769.14 L 743.269,791.077 C 743.266,791.455 743.169,791.798 742.985,792.104 C 742.8,792.411 742.553,792.658 742.24,792.843 C 741.927,793.025 741.576,793.117 741.186,793.127 C 740.808,793.117 740.469,793.025 740.162,792.843 C 739.852,792.658 739.608,792.411 739.422,792.104 C 739.24,791.798 739.143,791.455 739.143,791.077 Z" stroke-linecap="round" stroke-linejoin="round" fill-rule="nonzero" stroke-width="0.131" fill="#000165" marker-start="none" marker-end="none"/>
   <path d="M 747.943,785.655 C 747.373,785.647 746.896,785.454 746.521,785.08 C 746.143,784.705 745.951,784.217 745.936,783.609 L 745.936,769.103 C 745.951,768.533 746.143,768.056 746.521,767.679 C 746.896,767.301 747.373,767.106 747.943,767.095 C 748.529,767.106 749.009,767.301 749.375,767.679 C 749.745,768.056 749.935,768.533 749.945,769.103 L 749.945,783.609 C 749.935,784.217 749.745,784.705 749.375,785.08 C 749.009,785.454 748.529,785.647 747.943,785.655 Z M 749.945,791.117 C 749.935,791.691 749.745,792.165 749.375,792.54 C 749.009,792.916 748.529,793.109 747.943,793.127 C 747.373,793.109 746.896,792.916 746.521,792.54 C 746.143,792.165 745.951,791.691 745.936,791.117 L 745.936,790.338 C 745.94,789.963 746.029,789.622 746.209,789.312 C 746.384,789.007 746.625,788.762 746.927,788.577 C 747.227,788.393 747.565,788.303 747.943,788.294 C 748.328,788.303 748.672,788.393 748.972,788.577 C 749.274,788.762 749.511,789.007 749.685,789.312 C 749.857,789.622 749.943,789.963 749.945,790.338 L 749.945,791.117 Z" stroke-linecap="round" stroke-linejoin="round" fill-rule="nonzero" stroke-width="0.131" fill="#000165" marker-start="none" marker-end="none"/>
   <path d="M 760.345,785.689 C 759.617,785.686 758.919,785.582 758.251,785.377 C 757.581,785.176 756.966,784.892 756.404,784.535 C 756.229,784.892 755.982,785.176 755.66,785.377 C 755.337,785.582 754.979,785.686 754.583,785.689 C 754.014,785.676 753.547,785.483 753.18,785.108 C 752.818,784.736 752.628,784.277 752.613,783.72 L 752.613,777.957 C 752.613,777.957 752.613,777.957 752.613,777.957 L 752.613,769.067 C 752.628,768.514 752.818,768.048 753.18,767.676 C 753.547,767.301 754.014,767.109 754.583,767.095 C 755.076,767.106 755.501,767.259 755.86,767.561 C 756.219,767.861 756.449,768.239 756.552,768.695 C 756.589,768.768 756.608,768.837 756.615,768.893 C 756.625,768.954 756.628,769.012 756.625,769.067 L 756.625,769.067 L 756.625,777.957 C 756.633,778.66 756.802,779.291 757.128,779.856 C 757.453,780.419 757.899,780.869 758.456,781.2 C 759.014,781.535 759.647,781.705 760.345,781.713 C 761.063,781.705 761.711,781.535 762.292,781.2 C 762.873,780.869 763.339,780.419 763.685,779.856 C 764.031,779.291 764.208,778.66 764.216,777.957 L 764.216,769.067 C 764.222,768.704 764.315,768.374 764.496,768.077 C 764.675,767.778 764.917,767.543 765.214,767.367 C 765.509,767.192 765.834,767.1 766.185,767.095 C 766.738,767.109 767.196,767.301 767.555,767.676 C 767.919,768.048 768.107,768.514 768.12,769.067 L 768.12,777.957 C 768.115,779.015 767.91,780.009 767.511,780.939 C 767.112,781.867 766.563,782.687 765.854,783.397 C 765.143,784.111 764.32,784.665 763.381,785.07 C 762.443,785.476 761.432,785.681 760.345,785.689 Z" stroke-linecap="round" stroke-linejoin="round" fill-rule="nonzero" stroke-width="0.131" fill="#000165" marker-start="none" marker-end="none"/>
   <path d="M 772.74,767.095 C 773.128,767.1 773.48,767.194 773.792,767.379 C 774.105,767.561 774.352,767.809 774.539,768.116 C 774.724,768.423 774.82,768.767 774.826,769.14 L 774.826,772.413 L 776.868,774.458 L 782.334,767.838 C 782.526,767.598 782.756,767.41 783.032,767.285 C 783.307,767.158 783.597,767.095 783.894,767.095 C 784.121,767.095 784.349,767.134 784.576,767.212 C 784.8,767.288 785.009,767.41 785.199,767.58 C 785.495,767.819 785.708,768.111 785.829,768.445 C 785.954,768.783 785.985,769.129 785.932,769.489 C 785.875,769.845 785.73,770.176 785.495,770.478 L 779.769,777.358 L 785.347,782.936 C 785.62,783.204 785.802,783.507 785.891,783.853 C 785.982,784.197 785.982,784.546 785.891,784.897 C 785.802,785.244 785.62,785.559 785.347,785.837 C 785.081,786.098 784.771,786.27 784.42,786.356 C 784.071,786.444 783.722,786.444 783.373,786.356 C 783.021,786.27 782.714,786.098 782.448,785.837 L 774.826,778.215 L 774.826,791.077 C 774.82,791.455 774.724,791.798 774.539,792.104 C 774.352,792.411 774.105,792.658 773.792,792.843 C 773.48,793.025 773.128,793.117 772.74,793.127 C 772.352,793.117 772.003,793.025 771.696,792.843 C 771.389,792.658 771.146,792.411 770.969,792.104 C 770.787,791.798 770.696,791.455 770.693,791.077 L 770.693,769.14 C 770.696,768.767 770.787,768.423 770.969,768.116 C 771.146,767.809 771.389,767.561 771.696,767.379 C 772.003,767.194 772.352,767.1 772.74,767.095 Z" stroke-linecap="round" stroke-linejoin="round" fill-rule="nonzero" stroke-width="0.131" fill="#000165" marker-start="none" marker-end="none"/>
  </g>
 </g>
</svg>
